<mxfile host="65bd71144e">
    <diagram id="-YEiqACIFhOaQUH3v93v" name="Page-1">
        <mxGraphModel dx="1189" dy="667" grid="1" gridSize="10" guides="1" tooltips="1" connect="1" arrows="1" fold="1" page="1" pageScale="1" pageWidth="850" pageHeight="1100" math="0" shadow="0">
            <root>
                <mxCell id="0"/>
                <mxCell id="1" parent="0"/>
                <mxCell id="63" value="" style="endArrow=none;dashed=1;html=1;dashPattern=1 3;strokeWidth=2;fontSize=14;startArrow=none;" edge="1" parent="1" target="62">
                    <mxGeometry width="50" height="50" relative="1" as="geometry">
                        <mxPoint x="500" y="420" as="sourcePoint"/>
                        <mxPoint x="499.56999999999994" y="110" as="targetPoint"/>
                        <Array as="points">
                            <mxPoint x="500" y="600"/>
                        </Array>
                    </mxGeometry>
                </mxCell>
                <mxCell id="57" value="" style="whiteSpace=wrap;html=1;" parent="1" vertex="1">
                    <mxGeometry y="10" width="630" height="630" as="geometry"/>
                </mxCell>
                <mxCell id="15" value="" style="endArrow=none;dashed=1;html=1;dashPattern=1 3;strokeWidth=2;fontSize=14;startArrow=none;" parent="1" edge="1">
                    <mxGeometry width="50" height="50" relative="1" as="geometry">
                        <mxPoint x="224.9999999999999" y="220" as="sourcePoint"/>
                        <mxPoint x="225" y="110" as="targetPoint"/>
                    </mxGeometry>
                </mxCell>
                <mxCell id="14" value="" style="endArrow=none;dashed=1;html=1;dashPattern=1 3;strokeWidth=2;fontSize=14;" parent="1" target="2" edge="1">
                    <mxGeometry width="50" height="50" relative="1" as="geometry">
                        <mxPoint x="55" y="591.8181818181819" as="sourcePoint"/>
                        <mxPoint x="220" y="170" as="targetPoint"/>
                    </mxGeometry>
                </mxCell>
                <mxCell id="2" value="Doctor&lt;br&gt;" style="shape=umlActor;verticalLabelPosition=bottom;verticalAlign=top;html=1;outlineConnect=0;" parent="1" vertex="1">
                    <mxGeometry x="40" y="50" width="30" height="60" as="geometry"/>
                </mxCell>
                <mxCell id="3" value="Enfermero (vista)" style="rounded=0;whiteSpace=wrap;html=1;" parent="1" vertex="1">
                    <mxGeometry x="165" y="50" width="120" height="60" as="geometry"/>
                </mxCell>
                <mxCell id="10" style="edgeStyle=none;html=1;entryX=0;entryY=0;entryDx=0;entryDy=0;fontSize=14;exitX=1;exitY=0;exitDx=0;exitDy=0;" parent="1" source="4" target="9" edge="1">
                    <mxGeometry relative="1" as="geometry"/>
                </mxCell>
                <mxCell id="11" value="¿Sesión iniciada?" style="edgeLabel;html=1;align=center;verticalAlign=middle;resizable=0;points=[];fontSize=14;" parent="10" vertex="1" connectable="0">
                    <mxGeometry x="0.2444" y="-3" relative="1" as="geometry">
                        <mxPoint x="-19" y="-3" as="offset"/>
                    </mxGeometry>
                </mxCell>
                <mxCell id="18" style="edgeStyle=none;html=1;exitX=1.214;exitY=0.184;exitDx=0;exitDy=0;entryX=0;entryY=0;entryDx=0;entryDy=0;fontSize=14;exitPerimeter=0;" parent="1" source="4" target="33" edge="1">
                    <mxGeometry relative="1" as="geometry">
                        <mxPoint x="219.9999999999999" y="220.0000000000001" as="targetPoint"/>
                    </mxGeometry>
                </mxCell>
                <mxCell id="19" value="Seleccionar enfermero" style="edgeLabel;html=1;align=center;verticalAlign=middle;resizable=0;points=[];fontSize=14;" parent="18" vertex="1" connectable="0">
                    <mxGeometry x="0.2617" y="-2" relative="1" as="geometry">
                        <mxPoint x="-25" y="-2" as="offset"/>
                    </mxGeometry>
                </mxCell>
                <mxCell id="80" style="edgeStyle=none;html=1;entryX=0;entryY=0.5;entryDx=0;entryDy=0;fontSize=13;" edge="1" parent="1" target="33">
                    <mxGeometry relative="1" as="geometry">
                        <mxPoint x="60" y="425" as="sourcePoint"/>
                    </mxGeometry>
                </mxCell>
                <mxCell id="81" value="Llena formulario" style="edgeLabel;html=1;align=center;verticalAlign=middle;resizable=0;points=[];fontSize=13;" vertex="1" connectable="0" parent="80">
                    <mxGeometry x="0.2207" relative="1" as="geometry">
                        <mxPoint x="-17" as="offset"/>
                    </mxGeometry>
                </mxCell>
                <mxCell id="4" value="" style="whiteSpace=wrap;html=1;" parent="1" vertex="1">
                    <mxGeometry x="50" y="140" width="10" height="490" as="geometry"/>
                </mxCell>
                <mxCell id="6" value="Controlador" style="rounded=0;whiteSpace=wrap;html=1;" parent="1" vertex="1">
                    <mxGeometry x="300" y="50" width="120" height="60" as="geometry"/>
                </mxCell>
                <mxCell id="7" value="Base de datos" style="rounded=0;whiteSpace=wrap;html=1;" parent="1" vertex="1">
                    <mxGeometry x="440" y="50" width="120" height="60" as="geometry"/>
                </mxCell>
                <mxCell id="8" value="&lt;b&gt;&lt;font style=&quot;font-size: 14px;&quot;&gt;Modificar enfermero&lt;br&gt;&lt;/font&gt;&lt;/b&gt;" style="text;html=1;strokeColor=none;fillColor=none;align=center;verticalAlign=middle;whiteSpace=wrap;rounded=0;" parent="1" vertex="1">
                    <mxGeometry x="10" y="10" width="230" height="30" as="geometry"/>
                </mxCell>
                <mxCell id="12" style="edgeStyle=none;html=1;exitX=0;exitY=1;exitDx=0;exitDy=0;fontSize=14;dashed=1;" parent="1" source="9" edge="1">
                    <mxGeometry relative="1" as="geometry">
                        <mxPoint x="60" y="190" as="targetPoint"/>
                    </mxGeometry>
                </mxCell>
                <mxCell id="13" value="Muestra interfaz" style="edgeLabel;html=1;align=center;verticalAlign=middle;resizable=0;points=[];fontSize=14;" parent="12" vertex="1" connectable="0">
                    <mxGeometry x="-0.0759" relative="1" as="geometry">
                        <mxPoint as="offset"/>
                    </mxGeometry>
                </mxCell>
                <mxCell id="9" value="" style="whiteSpace=wrap;html=1;" parent="1" vertex="1">
                    <mxGeometry x="220" y="140" width="10" height="50" as="geometry"/>
                </mxCell>
                <mxCell id="17" value="" style="endArrow=none;dashed=1;html=1;dashPattern=1 3;strokeWidth=2;fontSize=14;exitX=0.356;exitY=1.005;exitDx=0;exitDy=0;exitPerimeter=0;" parent="1" edge="1" source="57">
                    <mxGeometry width="50" height="50" relative="1" as="geometry">
                        <mxPoint x="224.54999999999995" y="591.818181818182" as="sourcePoint"/>
                        <mxPoint x="224.93803894297628" y="310" as="targetPoint"/>
                    </mxGeometry>
                </mxCell>
                <mxCell id="24" value="" style="endArrow=none;dashed=1;html=1;dashPattern=1 3;strokeWidth=2;fontSize=14;startArrow=none;" parent="1" source="60" edge="1">
                    <mxGeometry width="50" height="50" relative="1" as="geometry">
                        <mxPoint x="360" y="390" as="sourcePoint"/>
                        <mxPoint x="359.5699999999999" y="110" as="targetPoint"/>
                    </mxGeometry>
                </mxCell>
                <mxCell id="26" value="" style="endArrow=none;dashed=1;html=1;dashPattern=1 3;strokeWidth=2;fontSize=14;startArrow=none;exitX=0.573;exitY=1;exitDx=0;exitDy=0;exitPerimeter=0;" parent="1" source="57" edge="1">
                    <mxGeometry width="50" height="50" relative="1" as="geometry">
                        <mxPoint x="360" y="540" as="sourcePoint"/>
                        <mxPoint x="360.12375" y="430" as="targetPoint"/>
                    </mxGeometry>
                </mxCell>
                <mxCell id="29" value="" style="endArrow=none;dashed=1;html=1;dashPattern=1 3;strokeWidth=2;fontSize=14;startArrow=none;exitX=0.792;exitY=1;exitDx=0;exitDy=0;exitPerimeter=0;" parent="1" edge="1" source="57">
                    <mxGeometry width="50" height="50" relative="1" as="geometry">
                        <mxPoint x="500" y="610" as="sourcePoint"/>
                        <mxPoint x="499.56999999999994" y="110" as="targetPoint"/>
                        <Array as="points"/>
                    </mxGeometry>
                </mxCell>
                <mxCell id="38" style="edgeStyle=none;html=1;entryX=0.5;entryY=0;entryDx=0;entryDy=0;fontSize=14;exitX=1.1;exitY=0.066;exitDx=0;exitDy=0;exitPerimeter=0;" parent="1" target="60" edge="1" source="33">
                    <mxGeometry relative="1" as="geometry">
                        <mxPoint x="230" y="320" as="sourcePoint"/>
                    </mxGeometry>
                </mxCell>
                <mxCell id="39" value="Enviar id &lt;br&gt;seleccionado" style="edgeLabel;html=1;align=center;verticalAlign=middle;resizable=0;points=[];fontSize=14;" parent="38" vertex="1" connectable="0">
                    <mxGeometry x="0.3699" y="-1" relative="1" as="geometry">
                        <mxPoint x="-29" y="-1" as="offset"/>
                    </mxGeometry>
                </mxCell>
                <mxCell id="52" style="edgeStyle=none;html=1;exitX=0;exitY=1;exitDx=0;exitDy=0;entryX=1.457;entryY=0.974;entryDx=0;entryDy=0;entryPerimeter=0;dashed=1;fontSize=14;" parent="1" source="33" target="4" edge="1">
                    <mxGeometry relative="1" as="geometry"/>
                </mxCell>
                <mxCell id="53" value="Alerta de confirmación" style="edgeLabel;html=1;align=center;verticalAlign=middle;resizable=0;points=[];fontSize=14;" parent="52" vertex="1" connectable="0">
                    <mxGeometry x="0.162" y="-3" relative="1" as="geometry">
                        <mxPoint x="14" y="3" as="offset"/>
                    </mxGeometry>
                </mxCell>
                <mxCell id="78" style="edgeStyle=none;html=1;dashed=1;fontSize=13;exitX=-0.1;exitY=0.413;exitDx=0;exitDy=0;exitPerimeter=0;" edge="1" parent="1" source="33">
                    <mxGeometry relative="1" as="geometry">
                        <mxPoint x="60" y="391" as="targetPoint"/>
                    </mxGeometry>
                </mxCell>
                <mxCell id="79" value="Mostrar formulario" style="edgeLabel;html=1;align=center;verticalAlign=middle;resizable=0;points=[];fontSize=13;" vertex="1" connectable="0" parent="78">
                    <mxGeometry x="-0.3545" y="1" relative="1" as="geometry">
                        <mxPoint x="-29" as="offset"/>
                    </mxGeometry>
                </mxCell>
                <mxCell id="84" style="edgeStyle=none;html=1;entryX=0;entryY=0.75;entryDx=0;entryDy=0;fontSize=13;exitX=1;exitY=0.705;exitDx=0;exitDy=0;exitPerimeter=0;" edge="1" parent="1" source="33" target="60">
                    <mxGeometry relative="1" as="geometry">
                        <mxPoint x="240" y="507" as="sourcePoint"/>
                    </mxGeometry>
                </mxCell>
                <mxCell id="85" value="Enviar petición" style="edgeLabel;html=1;align=center;verticalAlign=middle;resizable=0;points=[];fontSize=13;" vertex="1" connectable="0" parent="84">
                    <mxGeometry x="-0.252" relative="1" as="geometry">
                        <mxPoint x="7" as="offset"/>
                    </mxGeometry>
                </mxCell>
                <mxCell id="33" value="" style="whiteSpace=wrap;html=1;" parent="1" vertex="1">
                    <mxGeometry x="220" y="230" width="10" height="390" as="geometry"/>
                </mxCell>
                <mxCell id="42" style="edgeStyle=none;html=1;exitX=1;exitY=0;exitDx=0;exitDy=0;fontSize=14;entryX=1;entryY=0.5;entryDx=0;entryDy=0;" parent="1" source="44" edge="1" target="44">
                    <mxGeometry relative="1" as="geometry">
                        <mxPoint x="510" y="569" as="targetPoint"/>
                        <Array as="points">
                            <mxPoint x="560" y="519"/>
                            <mxPoint x="560" y="550"/>
                        </Array>
                    </mxGeometry>
                </mxCell>
                <mxCell id="43" value="Actualizar&lt;br&gt;enfermero" style="edgeLabel;html=1;align=center;verticalAlign=middle;resizable=0;points=[];fontSize=14;" parent="42" vertex="1" connectable="0">
                    <mxGeometry x="-0.1265" y="2" relative="1" as="geometry">
                        <mxPoint x="-2" y="-2" as="offset"/>
                    </mxGeometry>
                </mxCell>
                <mxCell id="47" style="edgeStyle=none;html=1;exitX=0;exitY=0.633;exitDx=0;exitDy=0;fontSize=14;dashed=1;exitPerimeter=0;" parent="1" source="44" edge="1">
                    <mxGeometry relative="1" as="geometry">
                        <mxPoint x="360" y="557" as="targetPoint"/>
                    </mxGeometry>
                </mxCell>
                <mxCell id="48" value="Confirmación" style="edgeLabel;html=1;align=center;verticalAlign=middle;resizable=0;points=[];fontSize=14;" parent="47" vertex="1" connectable="0">
                    <mxGeometry x="-0.41" relative="1" as="geometry">
                        <mxPoint x="-27" as="offset"/>
                    </mxGeometry>
                </mxCell>
                <mxCell id="44" value="" style="whiteSpace=wrap;html=1;" parent="1" vertex="1">
                    <mxGeometry x="495" y="519" width="10" height="60" as="geometry"/>
                </mxCell>
                <mxCell id="61" value="" style="endArrow=none;dashed=1;html=1;dashPattern=1 3;strokeWidth=2;fontSize=14;startArrow=none;" edge="1" parent="1" target="60">
                    <mxGeometry width="50" height="50" relative="1" as="geometry">
                        <mxPoint x="360" y="390" as="sourcePoint"/>
                        <mxPoint x="359.56999999999994" y="110" as="targetPoint"/>
                    </mxGeometry>
                </mxCell>
                <mxCell id="64" style="edgeStyle=none;html=1;exitX=1.1;exitY=0.1;exitDx=0;exitDy=0;exitPerimeter=0;" edge="1" parent="1" source="60">
                    <mxGeometry relative="1" as="geometry">
                        <mxPoint x="490" y="278" as="targetPoint"/>
                    </mxGeometry>
                </mxCell>
                <mxCell id="66" value="&lt;font style=&quot;font-size: 13px;&quot;&gt;Hacer petición&lt;/font&gt;" style="edgeLabel;html=1;align=center;verticalAlign=middle;resizable=0;points=[];" vertex="1" connectable="0" parent="64">
                    <mxGeometry x="0.264" relative="1" as="geometry">
                        <mxPoint x="-14" as="offset"/>
                    </mxGeometry>
                </mxCell>
                <mxCell id="76" style="edgeStyle=none;html=1;exitX=-0.2;exitY=0.312;exitDx=0;exitDy=0;fontSize=13;exitPerimeter=0;dashed=1;" edge="1" parent="1" source="60">
                    <mxGeometry relative="1" as="geometry">
                        <mxPoint x="230" y="356" as="targetPoint"/>
                    </mxGeometry>
                </mxCell>
                <mxCell id="77" value="Prellenar &lt;br&gt;formulario &lt;br&gt;con el enfermero &lt;br&gt;seleccionado" style="edgeLabel;html=1;align=center;verticalAlign=middle;resizable=0;points=[];fontSize=13;" vertex="1" connectable="0" parent="76">
                    <mxGeometry x="-0.4749" y="-1" relative="1" as="geometry">
                        <mxPoint x="-30" y="-2" as="offset"/>
                    </mxGeometry>
                </mxCell>
                <mxCell id="86" style="edgeStyle=none;html=1;exitX=1.3;exitY=0.797;exitDx=0;exitDy=0;entryX=0;entryY=0;entryDx=0;entryDy=0;fontSize=13;exitPerimeter=0;" edge="1" parent="1" source="60" target="44">
                    <mxGeometry relative="1" as="geometry"/>
                </mxCell>
                <mxCell id="87" value="Actiualizar enfermero" style="edgeLabel;html=1;align=center;verticalAlign=middle;resizable=0;points=[];fontSize=13;" vertex="1" connectable="0" parent="86">
                    <mxGeometry x="0.5621" y="-2" relative="1" as="geometry">
                        <mxPoint x="-41" y="-2" as="offset"/>
                    </mxGeometry>
                </mxCell>
                <mxCell id="60" value="" style="whiteSpace=wrap;html=1;" vertex="1" parent="1">
                    <mxGeometry x="355" y="250" width="10" height="340" as="geometry"/>
                </mxCell>
                <mxCell id="62" value="" style="whiteSpace=wrap;html=1;" vertex="1" parent="1">
                    <mxGeometry x="495" y="270" width="10" height="60" as="geometry"/>
                </mxCell>
                <mxCell id="71" style="edgeStyle=none;html=1;exitX=1;exitY=0;exitDx=0;exitDy=0;fontSize=14;" edge="1" parent="1">
                    <mxGeometry relative="1" as="geometry">
                        <mxPoint x="510" y="325" as="targetPoint"/>
                        <Array as="points">
                            <mxPoint x="560" y="275"/>
                            <mxPoint x="560" y="325"/>
                        </Array>
                        <mxPoint x="505" y="275" as="sourcePoint"/>
                    </mxGeometry>
                </mxCell>
                <mxCell id="72" value="Buscar &lt;br&gt;enfermero" style="edgeLabel;html=1;align=center;verticalAlign=middle;resizable=0;points=[];fontSize=14;" vertex="1" connectable="0" parent="71">
                    <mxGeometry x="-0.1265" y="2" relative="1" as="geometry">
                        <mxPoint x="-2" y="12" as="offset"/>
                    </mxGeometry>
                </mxCell>
                <mxCell id="74" style="edgeStyle=none;html=1;exitX=0;exitY=1;exitDx=0;exitDy=0;fontSize=14;dashed=1;" edge="1" parent="1">
                    <mxGeometry relative="1" as="geometry">
                        <mxPoint x="365" y="330" as="targetPoint"/>
                        <mxPoint x="490" y="330" as="sourcePoint"/>
                    </mxGeometry>
                </mxCell>
                <mxCell id="75" value="Confirmación" style="edgeLabel;html=1;align=center;verticalAlign=middle;resizable=0;points=[];fontSize=14;" vertex="1" connectable="0" parent="74">
                    <mxGeometry x="-0.41" relative="1" as="geometry">
                        <mxPoint x="-27" as="offset"/>
                    </mxGeometry>
                </mxCell>
                <mxCell id="82" style="edgeStyle=none;html=1;exitX=1;exitY=0;exitDx=0;exitDy=0;fontSize=14;entryX=1.2;entryY=0.662;entryDx=0;entryDy=0;entryPerimeter=0;" edge="1" parent="1" target="33">
                    <mxGeometry relative="1" as="geometry">
                        <mxPoint x="240" y="500" as="targetPoint"/>
                        <Array as="points">
                            <mxPoint x="260" y="430"/>
                            <mxPoint x="260" y="450"/>
                            <mxPoint x="260" y="487"/>
                        </Array>
                        <mxPoint x="230" y="430.00000000000034" as="sourcePoint"/>
                    </mxGeometry>
                </mxCell>
                <mxCell id="83" value="Verificar que &lt;br&gt;esten todos &lt;br&gt;los datos" style="edgeLabel;html=1;align=center;verticalAlign=middle;resizable=0;points=[];fontSize=14;" vertex="1" connectable="0" parent="82">
                    <mxGeometry x="-0.0448" y="1" relative="1" as="geometry">
                        <mxPoint x="24" y="3" as="offset"/>
                    </mxGeometry>
                </mxCell>
                <mxCell id="93" style="edgeStyle=none;html=1;exitX=-0.033;exitY=0.923;exitDx=0;exitDy=0;dashed=1;fontSize=14;exitPerimeter=0;entryX=0.911;entryY=0.854;entryDx=0;entryDy=0;entryPerimeter=0;" edge="1" parent="1" source="60" target="33">
                    <mxGeometry relative="1" as="geometry">
                        <mxPoint x="230" y="570" as="targetPoint"/>
                        <mxPoint x="357.5" y="570" as="sourcePoint"/>
                    </mxGeometry>
                </mxCell>
                <mxCell id="94" value="Regresa JSON" style="edgeLabel;html=1;align=center;verticalAlign=middle;resizable=0;points=[];fontSize=14;" vertex="1" connectable="0" parent="93">
                    <mxGeometry x="0.3979" y="2" relative="1" as="geometry">
                        <mxPoint x="30" y="-2" as="offset"/>
                    </mxGeometry>
                </mxCell>
                <mxCell id="95" style="edgeStyle=none;html=1;entryX=0.967;entryY=0.963;entryDx=0;entryDy=0;entryPerimeter=0;exitX=1.133;exitY=0.891;exitDx=0;exitDy=0;exitPerimeter=0;" edge="1" parent="1" target="33">
                    <mxGeometry relative="1" as="geometry">
                        <mxPoint x="230.33000000000004" y="579.49" as="sourcePoint"/>
                        <Array as="points">
                            <mxPoint x="249" y="579"/>
                            <mxPoint x="269" y="579"/>
                            <mxPoint x="270" y="606"/>
                        </Array>
                        <mxPoint x="230" y="631.74" as="targetPoint"/>
                    </mxGeometry>
                </mxCell>
                <mxCell id="96" value="Limpiar formulario" style="edgeLabel;html=1;align=center;verticalAlign=middle;resizable=0;points=[];" vertex="1" connectable="0" parent="95">
                    <mxGeometry x="0.5596" y="-2" relative="1" as="geometry">
                        <mxPoint x="32" y="-14" as="offset"/>
                    </mxGeometry>
                </mxCell>
            </root>
        </mxGraphModel>
    </diagram>
</mxfile>